<svg xmlns="http://www.w3.org/2000/svg" version="1.1" xmlns:xlink="http://www.w3.org/1999/xlink" width="1000" height="1000"><style>
    #light-icon {
      display: inline;
    }
    #dark-icon {
      display: none;
    }

    @media (prefers-color-scheme: dark) {
      #light-icon {
        display: none;
      }
      #dark-icon {
        display: inline;
      }
    }
  </style><g id="light-icon"><svg xmlns="http://www.w3.org/2000/svg" version="1.1" xmlns:xlink="http://www.w3.org/1999/xlink" width="1000" height="1000"><g clip-path="url(#SvgjsClipPath1168)"><rect width="1000" height="1000" fill="#8a8a8a"></rect><g transform="matrix(3.4146341463414633,0,0,3.4146341463414633,150,412.9268292682927)"><svg xmlns="http://www.w3.org/2000/svg" version="1.1" xmlns:xlink="http://www.w3.org/1999/xlink" width="205" height="51"><svg width="205" height="51" viewBox="0 0 205 51" fill="none" xmlns="http://www.w3.org/2000/svg">
<path d="M97.6651 0H14.5047C6.49398 0 0 6.46231 0 14.434V36.566C0 44.5377 6.49398 51 14.5047 51H97.6651C105.676 51 112.17 44.5377 112.17 36.566V14.434C112.17 6.46231 105.676 0 97.6651 0Z" fill="#15A0FF"></path>
<path d="M14.8296 35.6038V31.6315H18.45V18.0213H14.8296V14.049H26.7119V18.0213H23.0915V31.6315H26.7119V35.6038H14.8296ZM31.7951 35.6038V14.049H35.9415L47.9166 30.1535H47.0502C46.9676 29.5172 46.8955 28.9013 46.8336 28.3059C46.7717 27.6901 46.7098 27.0743 46.6479 26.4584C46.6066 25.8221 46.5653 25.1754 46.5241 24.5185C46.5034 23.841 46.4828 23.1328 46.4622 22.3938C46.4416 21.6343 46.4313 20.8131 46.4313 19.9304V14.049H50.98V35.6038H46.7717L34.549 19.3453L35.7249 19.3761C35.828 20.4436 35.9106 21.3571 35.9724 22.1167C36.0549 22.8557 36.1168 23.5023 36.1581 24.0566C36.1993 24.6109 36.2302 25.0932 36.2509 25.5038C36.2921 25.9144 36.3128 26.3044 36.3128 26.6739C36.3334 27.0435 36.3438 27.4335 36.3438 27.8441V35.6038H31.7951ZM56.6041 35.6038V14.049H61.2457V35.6038H56.6041ZM58.7392 27.0435V23.0712H69.9407V27.0435H58.7392ZM58.7392 18.206V14.049H71.2404V18.206H58.7392Z" fill="white"></path>
<path d="M124.911 35.9117C123.57 35.9117 122.342 35.7474 121.228 35.419C120.135 35.0906 119.155 34.6081 118.289 33.9718C117.443 33.3354 116.68 32.5656 115.999 31.6623L118.908 28.3675C119.918 29.7635 120.919 30.7181 121.909 31.2312C122.92 31.7239 124.013 31.9703 125.189 31.9703C125.828 31.9703 126.396 31.8882 126.891 31.7239C127.406 31.5392 127.809 31.2825 128.098 30.9541C128.387 30.6257 128.531 30.2356 128.531 29.784C128.531 29.4556 128.459 29.1578 128.314 28.891C128.17 28.6036 127.963 28.3572 127.696 28.152C127.428 27.9261 127.108 27.7312 126.736 27.5669C126.365 27.3822 125.952 27.2282 125.499 27.105C125.045 26.9614 124.55 26.8484 124.013 26.7663C122.858 26.4995 121.847 26.1813 120.981 25.8118C120.114 25.4218 119.392 24.9496 118.815 24.3953C118.238 23.8205 117.804 23.1739 117.515 22.4554C117.247 21.7369 117.113 20.9261 117.113 20.0228C117.113 19.099 117.319 18.2471 117.732 17.467C118.145 16.6664 118.711 15.9787 119.434 15.4039C120.176 14.8292 121.022 14.3878 121.971 14.0798C122.941 13.7719 123.962 13.618 125.034 13.618C126.354 13.618 127.51 13.7719 128.5 14.0798C129.49 14.3673 130.346 14.7881 131.068 15.3423C131.811 15.8966 132.43 16.574 132.925 17.3746L129.985 20.2075C129.552 19.6328 129.077 19.1503 128.562 18.7603C128.067 18.3703 127.521 18.0829 126.922 17.8981C126.345 17.6929 125.746 17.5902 125.127 17.5902C124.447 17.5902 123.859 17.6826 123.364 17.8673C122.868 18.0316 122.477 18.2779 122.188 18.6063C121.92 18.9347 121.785 19.335 121.785 19.8072C121.785 20.1767 121.878 20.5052 122.064 20.7926C122.25 21.08 122.517 21.3366 122.868 21.5624C123.219 21.7677 123.642 21.9524 124.137 22.1167C124.632 22.2809 125.179 22.4246 125.777 22.5478C126.911 22.7736 127.933 23.0712 128.841 23.4407C129.749 23.8103 130.522 24.2618 131.161 24.7956C131.822 25.3088 132.326 25.9246 132.678 26.6432C133.029 27.3411 133.204 28.1315 133.204 29.0142C133.204 30.4717 132.853 31.7136 132.151 32.7401C131.45 33.7665 130.481 34.5568 129.243 35.1111C128.005 35.6448 126.561 35.9117 124.911 35.9117ZM151.054 35.6038V14.049H155.696V35.6038H151.054ZM137.408 35.6038V14.049H142.049V35.6038H137.408ZM139.265 26.9511L139.296 22.7633H153.437V26.9511H139.265ZM170.933 35.9117C169.344 35.9117 167.879 35.6346 166.539 35.0803C165.198 34.526 164.022 33.7562 163.012 32.7709C162.022 31.765 161.258 30.5846 160.722 29.2297C160.185 27.8544 159.917 26.366 159.917 24.7648C159.917 23.1431 160.185 21.6651 160.722 20.3307C161.258 18.9758 162.022 17.7954 163.012 16.7896C164.022 15.7837 165.198 15.0036 166.539 14.4493C167.879 13.8951 169.344 13.618 170.933 13.618C172.542 13.618 174.006 13.8951 175.327 14.4493C176.667 15.0036 177.834 15.7837 178.824 16.7896C179.834 17.7954 180.608 18.9758 181.145 20.3307C181.68 21.6856 181.949 23.1636 181.949 24.7648C181.949 26.366 181.68 27.8441 181.145 29.1989C180.608 30.5538 179.834 31.7342 178.824 32.7401C177.834 33.7459 176.667 34.526 175.327 35.0803C174.006 35.6346 172.542 35.9117 170.933 35.9117ZM170.933 31.5392C171.84 31.5392 172.676 31.3749 173.44 31.0465C174.223 30.7181 174.894 30.2459 175.451 29.63C176.008 29.0142 176.441 28.2957 176.751 27.4746C177.08 26.6535 177.246 25.7502 177.246 24.7648C177.246 23.7795 177.08 22.8762 176.751 22.0551C176.441 21.234 176.008 20.5258 175.451 19.9304C174.894 19.3146 174.223 18.8424 173.44 18.5139C172.676 18.1649 171.84 17.9905 170.933 17.9905C170.025 17.9905 169.19 18.1649 168.427 18.5139C167.663 18.8424 166.993 19.3146 166.415 19.9304C165.837 20.5258 165.394 21.234 165.085 22.0551C164.796 22.8762 164.652 23.7795 164.652 24.7648C164.652 25.7502 164.796 26.6535 165.085 27.4746C165.394 28.2957 165.837 29.0142 166.415 29.63C166.993 30.2459 167.663 30.7181 168.427 31.0465C169.19 31.3749 170.025 31.5392 170.933 31.5392ZM186.15 35.6038V14.049H195.34C196.618 14.049 197.774 14.357 198.805 14.9728C199.858 15.5682 200.682 16.3893 201.281 17.4362C201.9 18.4832 202.209 19.6636 202.209 20.9773C202.209 22.3117 201.9 23.5126 201.281 24.5801C200.682 25.6475 199.858 26.4995 198.805 27.1358C197.774 27.7517 196.618 28.0596 195.34 28.0596H190.791V35.6038H186.15ZM190.729 23.9026H194.814C195.309 23.9026 195.752 23.7795 196.144 23.5331C196.536 23.2663 196.845 22.9173 197.073 22.4862C197.32 22.0551 197.444 21.5624 197.444 21.0081C197.444 20.4539 197.32 19.9715 197.073 19.5609C196.845 19.1298 196.536 18.8014 196.144 18.5755C195.752 18.3292 195.309 18.206 194.814 18.206H190.729V23.9026Z" fill="white"></path>
<path d="M95.4893 15.7571H78.5671C77.8939 15.7571 77.2483 16.0232 76.7722 16.4969C76.2963 16.9706 76.0288 17.6131 76.0288 18.283V30.0708C76.0288 30.7407 76.2963 31.3832 76.7722 31.8569C77.2483 32.3305 77.8939 32.5967 78.5671 32.5967H95.4893C96.1625 32.5967 96.8083 32.3305 97.284 31.8569C97.7598 31.3832 98.0276 30.7407 98.0276 30.0708V18.283C98.0276 17.6131 97.7598 16.9706 97.284 16.4969C96.8083 16.0232 96.1625 15.7571 95.4893 15.7571ZM96.3354 30.0708C96.3354 30.2941 96.2463 30.5082 96.0876 30.6661C95.9289 30.824 95.7137 30.9127 95.4893 30.9127H78.5671C78.3427 30.9127 78.1275 30.824 77.9689 30.6661C77.8102 30.5082 77.721 30.2941 77.721 30.0708V18.283C77.721 18.0597 77.8102 17.8456 77.9689 17.6877C78.1275 17.5298 78.3427 17.441 78.5671 17.441H95.4893C95.7137 17.441 95.9289 17.5298 96.0876 17.6877C96.2463 17.8456 96.3354 18.0597 96.3354 18.283V30.0708ZM91.2588 35.1226C91.2588 35.346 91.1696 35.5601 91.0109 35.718C90.8522 35.8759 90.6371 35.9646 90.4127 35.9646H83.6438C83.4193 35.9646 83.2042 35.8759 83.0455 35.718C82.8868 35.5601 82.7977 35.346 82.7977 35.1226C82.7977 34.8993 82.8868 34.6852 83.0455 34.5273C83.2042 34.3694 83.4193 34.2807 83.6438 34.2807H90.4127C90.6371 34.2807 90.8522 34.3694 91.0109 34.5273C91.1696 34.6852 91.2588 34.8993 91.2588 35.1226Z" fill="#FFFDFD"></path>
</svg></svg></g></g><defs><clipPath id="SvgjsClipPath1168"><rect width="1000" height="1000" x="0" y="0" rx="350" ry="350"></rect></clipPath></defs></svg></g><g id="dark-icon"><svg xmlns="http://www.w3.org/2000/svg" version="1.1" xmlns:xlink="http://www.w3.org/1999/xlink" width="1000" height="1000"><g><g transform="matrix(4.8076923076923075,0,0,4.8076923076923075,0,375)"><svg xmlns="http://www.w3.org/2000/svg" version="1.1" xmlns:xlink="http://www.w3.org/1999/xlink" width="208" height="52"><svg width="208" height="52" viewBox="0 0 208 52" fill="none" xmlns="http://www.w3.org/2000/svg">
<path d="M99.0943 0H14.717C6.58902 0 0 6.58902 0 14.717V37.283C0 45.411 6.58902 52 14.717 52H99.0943C107.222 52 113.811 45.411 113.811 37.283V14.717C113.811 6.58902 107.222 0 99.0943 0Z" fill="white"></path>
<path d="M15.0469 36.3018V32.2517H18.7202V18.3746H15.0469V14.3245H27.103V18.3746H23.4297V32.2517H27.103V36.3018H15.0469ZM32.2606 36.3018V14.3245H36.4677L48.6181 30.7447H47.739C47.6552 30.0959 47.582 29.4679 47.5192 28.8609C47.4564 28.233 47.3936 27.6051 47.3308 26.9771C47.2889 26.3283 47.247 25.669 47.2052 24.9992C47.1842 24.3085 47.1633 23.5863 47.1424 22.8328C47.1215 22.0584 47.1111 21.2211 47.1111 20.3211V14.3245H51.7263V36.3018H47.4564L35.0549 19.7246L36.248 19.756C36.3526 20.8444 36.4363 21.7759 36.4991 22.5503C36.5828 23.3038 36.6456 23.9631 36.6875 24.5282C36.7293 25.0934 36.7607 25.5852 36.7817 26.0039C36.8235 26.4225 36.8445 26.8202 36.8445 27.1969C36.8654 27.5737 36.8759 27.9713 36.8759 28.39V36.3018H32.2606ZM57.4328 36.3018V14.3245H62.1422V36.3018H57.4328ZM59.5991 27.5737V23.5236H70.9645V27.5737H59.5991ZM59.5991 18.563V14.3245H72.2832V18.563H59.5991Z" fill="#010304"></path>
<path d="M126.739 36.6159C125.378 36.6159 124.133 36.4484 123.003 36.1135C121.893 35.7787 120.899 35.2867 120.02 34.6379C119.162 33.9891 118.387 33.2042 117.697 32.2832L120.648 28.9238C121.673 30.3471 122.689 31.3204 123.693 31.8437C124.719 32.346 125.828 32.5972 127.021 32.5972C127.67 32.5972 128.246 32.5135 128.748 32.346C129.271 32.1576 129.679 31.8959 129.973 31.5611C130.266 31.2262 130.412 30.8285 130.412 30.368C130.412 30.0332 130.339 29.7296 130.192 29.4575C130.046 29.1645 129.836 28.9133 129.565 28.704C129.293 28.4738 128.968 28.275 128.591 28.1075C128.215 27.9191 127.796 27.7621 127.335 27.6366C126.875 27.4901 126.373 27.3749 125.828 27.2912C124.656 27.0191 123.631 26.6947 122.752 26.3179C121.872 25.9203 121.14 25.4388 120.554 24.8737C119.968 24.2877 119.529 23.6283 119.235 22.8957C118.963 22.1631 118.827 21.3364 118.827 20.4154C118.827 19.4735 119.036 18.6049 119.455 17.8095C119.874 16.9932 120.449 16.292 121.182 15.706C121.935 15.12 122.794 14.6699 123.756 14.356C124.74 14.042 125.776 13.885 126.864 13.885C128.204 13.885 129.376 14.042 130.381 14.356C131.386 14.649 132.254 15.0781 132.987 15.6432C133.74 16.2083 134.368 16.899 134.871 17.7153L131.888 20.6038C131.448 20.0178 130.967 19.5258 130.444 19.1282C129.941 18.7305 129.387 18.4375 128.78 18.2491C128.194 18.0398 127.587 17.9351 126.959 17.9351C126.268 17.9351 125.671 18.0293 125.169 18.2177C124.667 18.3852 124.269 18.6363 123.976 18.9712C123.704 19.3061 123.568 19.7142 123.568 20.1957C123.568 20.5724 123.662 20.9073 123.85 21.2003C124.039 21.4934 124.311 21.755 124.667 21.9852C125.023 22.1945 125.452 22.3829 125.954 22.5504C126.456 22.7178 127.011 22.8643 127.618 22.9899C128.769 23.2202 129.805 23.5237 130.726 23.9004C131.648 24.2772 132.432 24.7376 133.081 25.2818C133.751 25.8051 134.263 26.433 134.619 27.1656C134.975 27.8772 135.153 28.6831 135.153 29.5831C135.153 31.0692 134.797 32.3355 134.086 33.3821C133.374 34.4286 132.39 35.2344 131.134 35.7996C129.879 36.3438 128.414 36.6159 126.739 36.6159ZM153.265 36.3019V14.3246H157.974V36.3019H153.265ZM139.419 36.3019V14.3246H144.128V36.3019H139.419ZM141.303 27.4796L141.334 23.2097H155.682V27.4796H141.303ZM173.435 36.6159C171.823 36.6159 170.336 36.3333 168.977 35.7682C167.616 35.203 166.423 34.4181 165.397 33.4135C164.393 32.3879 163.618 31.1843 163.074 29.8029C162.53 28.4006 162.258 26.883 162.258 25.2504C162.258 23.5969 162.53 22.0899 163.074 20.7294C163.618 19.348 164.393 18.1444 165.397 17.1188C166.423 16.0932 167.616 15.2978 168.977 14.7327C170.336 14.1676 171.823 13.885 173.435 13.885C175.068 13.885 176.553 14.1676 177.893 14.7327C179.253 15.2978 180.436 16.0932 181.441 17.1188C182.466 18.1444 183.251 19.348 183.796 20.7294C184.339 22.1108 184.612 23.6178 184.612 25.2504C184.612 26.883 184.339 28.3901 183.796 29.7715C183.251 31.1529 182.466 32.3565 181.441 33.3821C180.436 34.4076 179.253 35.203 177.893 35.7682C176.553 36.3333 175.068 36.6159 173.435 36.6159ZM173.435 32.1576C174.355 32.1576 175.203 31.9901 175.978 31.6553C176.773 31.3204 177.454 30.839 178.019 30.211C178.584 29.5831 179.023 28.8505 179.337 28.0133C179.672 27.1761 179.84 26.2551 179.84 25.2504C179.84 24.2458 179.672 23.3248 179.337 22.4876C179.023 21.6504 178.584 20.9283 178.019 20.3212C177.454 19.6933 176.773 19.2119 175.978 18.877C175.203 18.5212 174.355 18.3433 173.435 18.3433C172.514 18.3433 171.666 18.5212 170.892 18.877C170.117 19.2119 169.437 19.6933 168.851 20.3212C168.264 20.9283 167.815 21.6504 167.501 22.4876C167.208 23.3248 167.061 24.2458 167.061 25.2504C167.061 26.2551 167.208 27.1761 167.501 28.0133C167.815 28.8505 168.264 29.5831 168.851 30.211C169.437 30.839 170.117 31.3204 170.892 31.6553C171.666 31.9901 172.514 32.1576 173.435 32.1576ZM188.874 36.3019V14.3246H198.199C199.496 14.3246 200.668 14.6385 201.715 15.2664C202.783 15.8735 203.619 16.7107 204.227 17.7781C204.855 18.8456 205.169 20.0492 205.169 21.3887C205.169 22.7492 204.855 23.9737 204.227 25.0621C203.619 26.1504 202.783 27.0191 201.715 27.668C200.668 28.2959 199.496 28.6098 198.199 28.6098H193.583V36.3019H188.874ZM193.521 24.3713H197.665C198.167 24.3713 198.617 24.2458 199.015 23.9946C199.412 23.7225 199.726 23.3667 199.957 22.9271C200.208 22.4876 200.334 21.9852 200.334 21.4201C200.334 20.855 200.208 20.3631 199.957 19.9445C199.726 19.5049 199.412 19.1701 199.015 18.9398C198.617 18.6886 198.167 18.563 197.665 18.563H193.521V24.3713Z" fill="white"></path>
<path d="M96.8869 16.0659H79.7171C79.034 16.0659 78.3789 16.3373 77.8959 16.8202C77.413 17.3032 77.1416 17.9583 77.1416 18.6414V30.6603C77.1416 31.3433 77.413 31.9984 77.8959 32.4814C78.3789 32.9643 79.034 33.2357 79.7171 33.2357H96.8869C97.5699 33.2357 98.2252 32.9643 98.7079 32.4814C99.1906 31.9984 99.4624 31.3433 99.4624 30.6603V18.6414C99.4624 17.9583 99.1906 17.3032 98.7079 16.8202C98.2252 16.3373 97.5699 16.0659 96.8869 16.0659ZM97.7454 30.6603C97.7454 30.888 97.6549 31.1063 97.4939 31.2673C97.3329 31.4283 97.1146 31.5187 96.8869 31.5187H79.7171C79.4894 31.5187 79.2711 31.4283 79.11 31.2673C78.949 31.1063 78.8586 30.888 78.8586 30.6603V18.6414C78.8586 18.4137 78.949 18.1954 79.11 18.0344C79.2711 17.8734 79.4894 17.7829 79.7171 17.7829H96.8869C97.1146 17.7829 97.3329 17.8734 97.4939 18.0344C97.6549 18.1954 97.7454 18.4137 97.7454 18.6414V30.6603ZM92.5944 35.8112C92.5944 36.0389 92.504 36.2572 92.343 36.4182C92.182 36.5792 91.9637 36.6697 91.7359 36.6697H84.868C84.6403 36.6697 84.422 36.5792 84.261 36.4182C84.1 36.2572 84.0095 36.0389 84.0095 35.8112C84.0095 35.5835 84.1 35.3652 84.261 35.2042C84.422 35.0432 84.6403 34.9527 84.868 34.9527H91.7359C91.9637 34.9527 92.182 35.0432 92.343 35.2042C92.504 35.3652 92.5944 35.5835 92.5944 35.8112Z" fill="#010304"></path>
</svg></svg></g></g></svg></g></svg>