<svg width="205" height="51" viewBox="0 0 205 51" fill="none" xmlns="http://www.w3.org/2000/svg">
<path d="M97.6651 0H14.5047C6.49398 0 0 6.46231 0 14.434V36.566C0 44.5377 6.49398 51 14.5047 51H97.6651C105.676 51 112.17 44.5377 112.17 36.566V14.434C112.17 6.46231 105.676 0 97.6651 0Z" fill="#15A0FF"/>
<path d="M14.8296 35.6038V31.6315H18.45V18.0213H14.8296V14.049H26.7119V18.0213H23.0915V31.6315H26.7119V35.6038H14.8296ZM31.7951 35.6038V14.049H35.9415L47.9166 30.1535H47.0502C46.9676 29.5172 46.8955 28.9013 46.8336 28.3059C46.7717 27.6901 46.7098 27.0743 46.6479 26.4584C46.6066 25.8221 46.5653 25.1754 46.5241 24.5185C46.5034 23.841 46.4828 23.1328 46.4622 22.3938C46.4416 21.6343 46.4313 20.8131 46.4313 19.9304V14.049H50.98V35.6038H46.7717L34.549 19.3453L35.7249 19.3761C35.828 20.4436 35.9106 21.3571 35.9724 22.1167C36.0549 22.8557 36.1168 23.5023 36.1581 24.0566C36.1993 24.6109 36.2302 25.0932 36.2509 25.5038C36.2921 25.9144 36.3128 26.3044 36.3128 26.6739C36.3334 27.0435 36.3438 27.4335 36.3438 27.8441V35.6038H31.7951ZM56.6041 35.6038V14.049H61.2457V35.6038H56.6041ZM58.7392 27.0435V23.0712H69.9407V27.0435H58.7392ZM58.7392 18.206V14.049H71.2404V18.206H58.7392Z" fill="white"/>
<path d="M124.911 35.9117C123.57 35.9117 122.342 35.7474 121.228 35.419C120.135 35.0906 119.155 34.6081 118.289 33.9718C117.443 33.3354 116.68 32.5656 115.999 31.6623L118.908 28.3675C119.918 29.7635 120.919 30.7181 121.909 31.2312C122.92 31.7239 124.013 31.9703 125.189 31.9703C125.828 31.9703 126.396 31.8882 126.891 31.7239C127.406 31.5392 127.809 31.2825 128.098 30.9541C128.387 30.6257 128.531 30.2356 128.531 29.784C128.531 29.4556 128.459 29.1578 128.314 28.891C128.17 28.6036 127.963 28.3572 127.696 28.152C127.428 27.9261 127.108 27.7312 126.736 27.5669C126.365 27.3822 125.952 27.2282 125.499 27.105C125.045 26.9614 124.55 26.8484 124.013 26.7663C122.858 26.4995 121.847 26.1813 120.981 25.8118C120.114 25.4218 119.392 24.9496 118.815 24.3953C118.238 23.8205 117.804 23.1739 117.515 22.4554C117.247 21.7369 117.113 20.9261 117.113 20.0228C117.113 19.099 117.319 18.2471 117.732 17.467C118.145 16.6664 118.711 15.9787 119.434 15.4039C120.176 14.8292 121.022 14.3878 121.971 14.0798C122.941 13.7719 123.962 13.618 125.034 13.618C126.354 13.618 127.51 13.7719 128.5 14.0798C129.49 14.3673 130.346 14.7881 131.068 15.3423C131.811 15.8966 132.43 16.574 132.925 17.3746L129.985 20.2075C129.552 19.6328 129.077 19.1503 128.562 18.7603C128.067 18.3703 127.521 18.0829 126.922 17.8981C126.345 17.6929 125.746 17.5902 125.127 17.5902C124.447 17.5902 123.859 17.6826 123.364 17.8673C122.868 18.0316 122.477 18.2779 122.188 18.6063C121.92 18.9347 121.785 19.335 121.785 19.8072C121.785 20.1767 121.878 20.5052 122.064 20.7926C122.25 21.08 122.517 21.3366 122.868 21.5624C123.219 21.7677 123.642 21.9524 124.137 22.1167C124.632 22.2809 125.179 22.4246 125.777 22.5478C126.911 22.7736 127.933 23.0712 128.841 23.4407C129.749 23.8103 130.522 24.2618 131.161 24.7956C131.822 25.3088 132.326 25.9246 132.678 26.6432C133.029 27.3411 133.204 28.1315 133.204 29.0142C133.204 30.4717 132.853 31.7136 132.151 32.7401C131.45 33.7665 130.481 34.5568 129.243 35.1111C128.005 35.6448 126.561 35.9117 124.911 35.9117ZM151.054 35.6038V14.049H155.696V35.6038H151.054ZM137.408 35.6038V14.049H142.049V35.6038H137.408ZM139.265 26.9511L139.296 22.7633H153.437V26.9511H139.265ZM170.933 35.9117C169.344 35.9117 167.879 35.6346 166.539 35.0803C165.198 34.526 164.022 33.7562 163.012 32.7709C162.022 31.765 161.258 30.5846 160.722 29.2297C160.185 27.8544 159.917 26.366 159.917 24.7648C159.917 23.1431 160.185 21.6651 160.722 20.3307C161.258 18.9758 162.022 17.7954 163.012 16.7896C164.022 15.7837 165.198 15.0036 166.539 14.4493C167.879 13.8951 169.344 13.618 170.933 13.618C172.542 13.618 174.006 13.8951 175.327 14.4493C176.667 15.0036 177.834 15.7837 178.824 16.7896C179.834 17.7954 180.608 18.9758 181.145 20.3307C181.68 21.6856 181.949 23.1636 181.949 24.7648C181.949 26.366 181.68 27.8441 181.145 29.1989C180.608 30.5538 179.834 31.7342 178.824 32.7401C177.834 33.7459 176.667 34.526 175.327 35.0803C174.006 35.6346 172.542 35.9117 170.933 35.9117ZM170.933 31.5392C171.84 31.5392 172.676 31.3749 173.44 31.0465C174.223 30.7181 174.894 30.2459 175.451 29.63C176.008 29.0142 176.441 28.2957 176.751 27.4746C177.08 26.6535 177.246 25.7502 177.246 24.7648C177.246 23.7795 177.08 22.8762 176.751 22.0551C176.441 21.234 176.008 20.5258 175.451 19.9304C174.894 19.3146 174.223 18.8424 173.44 18.5139C172.676 18.1649 171.84 17.9905 170.933 17.9905C170.025 17.9905 169.19 18.1649 168.427 18.5139C167.663 18.8424 166.993 19.3146 166.415 19.9304C165.837 20.5258 165.394 21.234 165.085 22.0551C164.796 22.8762 164.652 23.7795 164.652 24.7648C164.652 25.7502 164.796 26.6535 165.085 27.4746C165.394 28.2957 165.837 29.0142 166.415 29.63C166.993 30.2459 167.663 30.7181 168.427 31.0465C169.19 31.3749 170.025 31.5392 170.933 31.5392ZM186.15 35.6038V14.049H195.34C196.618 14.049 197.774 14.357 198.805 14.9728C199.858 15.5682 200.682 16.3893 201.281 17.4362C201.9 18.4832 202.209 19.6636 202.209 20.9773C202.209 22.3117 201.9 23.5126 201.281 24.5801C200.682 25.6475 199.858 26.4995 198.805 27.1358C197.774 27.7517 196.618 28.0596 195.34 28.0596H190.791V35.6038H186.15ZM190.729 23.9026H194.814C195.309 23.9026 195.752 23.7795 196.144 23.5331C196.536 23.2663 196.845 22.9173 197.073 22.4862C197.32 22.0551 197.444 21.5624 197.444 21.0081C197.444 20.4539 197.32 19.9715 197.073 19.5609C196.845 19.1298 196.536 18.8014 196.144 18.5755C195.752 18.3292 195.309 18.206 194.814 18.206H190.729V23.9026Z" fill="white"/>
<path d="M95.4893 15.7571H78.5671C77.8939 15.7571 77.2483 16.0232 76.7722 16.4969C76.2963 16.9706 76.0288 17.6131 76.0288 18.283V30.0708C76.0288 30.7407 76.2963 31.3832 76.7722 31.8569C77.2483 32.3305 77.8939 32.5967 78.5671 32.5967H95.4893C96.1625 32.5967 96.8083 32.3305 97.284 31.8569C97.7598 31.3832 98.0276 30.7407 98.0276 30.0708V18.283C98.0276 17.6131 97.7598 16.9706 97.284 16.4969C96.8083 16.0232 96.1625 15.7571 95.4893 15.7571ZM96.3354 30.0708C96.3354 30.2941 96.2463 30.5082 96.0876 30.6661C95.9289 30.824 95.7137 30.9127 95.4893 30.9127H78.5671C78.3427 30.9127 78.1275 30.824 77.9689 30.6661C77.8102 30.5082 77.721 30.2941 77.721 30.0708V18.283C77.721 18.0597 77.8102 17.8456 77.9689 17.6877C78.1275 17.5298 78.3427 17.441 78.5671 17.441H95.4893C95.7137 17.441 95.9289 17.5298 96.0876 17.6877C96.2463 17.8456 96.3354 18.0597 96.3354 18.283V30.0708ZM91.2588 35.1226C91.2588 35.346 91.1696 35.5601 91.0109 35.718C90.8522 35.8759 90.6371 35.9646 90.4127 35.9646H83.6438C83.4193 35.9646 83.2042 35.8759 83.0455 35.718C82.8868 35.5601 82.7977 35.346 82.7977 35.1226C82.7977 34.8993 82.8868 34.6852 83.0455 34.5273C83.2042 34.3694 83.4193 34.2807 83.6438 34.2807H90.4127C90.6371 34.2807 90.8522 34.3694 91.0109 34.5273C91.1696 34.6852 91.2588 34.8993 91.2588 35.1226Z" fill="#FFFDFD"/>
</svg>
