<svg width="208" height="52" viewBox="0 0 208 52" fill="none" xmlns="http://www.w3.org/2000/svg">
<path d="M99.0943 0H14.717C6.58902 0 0 6.58902 0 14.717V37.283C0 45.411 6.58902 52 14.717 52H99.0943C107.222 52 113.811 45.411 113.811 37.283V14.717C113.811 6.58902 107.222 0 99.0943 0Z" fill="white"/>
<path d="M15.0469 36.3018V32.2517H18.7202V18.3746H15.0469V14.3245H27.103V18.3746H23.4297V32.2517H27.103V36.3018H15.0469ZM32.2606 36.3018V14.3245H36.4677L48.6181 30.7447H47.739C47.6552 30.0959 47.582 29.4679 47.5192 28.8609C47.4564 28.233 47.3936 27.6051 47.3308 26.9771C47.2889 26.3283 47.247 25.669 47.2052 24.9992C47.1842 24.3085 47.1633 23.5863 47.1424 22.8328C47.1215 22.0584 47.1111 21.2211 47.1111 20.3211V14.3245H51.7263V36.3018H47.4564L35.0549 19.7246L36.248 19.756C36.3526 20.8444 36.4363 21.7759 36.4991 22.5503C36.5828 23.3038 36.6456 23.9631 36.6875 24.5282C36.7293 25.0934 36.7607 25.5852 36.7817 26.0039C36.8235 26.4225 36.8445 26.8202 36.8445 27.1969C36.8654 27.5737 36.8759 27.9713 36.8759 28.39V36.3018H32.2606ZM57.4328 36.3018V14.3245H62.1422V36.3018H57.4328ZM59.5991 27.5737V23.5236H70.9645V27.5737H59.5991ZM59.5991 18.563V14.3245H72.2832V18.563H59.5991Z" fill="#010304"/>
<path d="M126.739 36.6159C125.378 36.6159 124.133 36.4484 123.003 36.1135C121.893 35.7787 120.899 35.2867 120.02 34.6379C119.162 33.9891 118.387 33.2042 117.697 32.2832L120.648 28.9238C121.673 30.3471 122.689 31.3204 123.693 31.8437C124.719 32.346 125.828 32.5972 127.021 32.5972C127.67 32.5972 128.246 32.5135 128.748 32.346C129.271 32.1576 129.679 31.8959 129.973 31.5611C130.266 31.2262 130.412 30.8285 130.412 30.368C130.412 30.0332 130.339 29.7296 130.192 29.4575C130.046 29.1645 129.836 28.9133 129.565 28.704C129.293 28.4738 128.968 28.275 128.591 28.1075C128.215 27.9191 127.796 27.7621 127.335 27.6366C126.875 27.4901 126.373 27.3749 125.828 27.2912C124.656 27.0191 123.631 26.6947 122.752 26.3179C121.872 25.9203 121.14 25.4388 120.554 24.8737C119.968 24.2877 119.529 23.6283 119.235 22.8957C118.963 22.1631 118.827 21.3364 118.827 20.4154C118.827 19.4735 119.036 18.6049 119.455 17.8095C119.874 16.9932 120.449 16.292 121.182 15.706C121.935 15.12 122.794 14.6699 123.756 14.356C124.74 14.042 125.776 13.885 126.864 13.885C128.204 13.885 129.376 14.042 130.381 14.356C131.386 14.649 132.254 15.0781 132.987 15.6432C133.74 16.2083 134.368 16.899 134.871 17.7153L131.888 20.6038C131.448 20.0178 130.967 19.5258 130.444 19.1282C129.941 18.7305 129.387 18.4375 128.78 18.2491C128.194 18.0398 127.587 17.9351 126.959 17.9351C126.268 17.9351 125.671 18.0293 125.169 18.2177C124.667 18.3852 124.269 18.6363 123.976 18.9712C123.704 19.3061 123.568 19.7142 123.568 20.1957C123.568 20.5724 123.662 20.9073 123.85 21.2003C124.039 21.4934 124.311 21.755 124.667 21.9852C125.023 22.1945 125.452 22.3829 125.954 22.5504C126.456 22.7178 127.011 22.8643 127.618 22.9899C128.769 23.2202 129.805 23.5237 130.726 23.9004C131.648 24.2772 132.432 24.7376 133.081 25.2818C133.751 25.8051 134.263 26.433 134.619 27.1656C134.975 27.8772 135.153 28.6831 135.153 29.5831C135.153 31.0692 134.797 32.3355 134.086 33.3821C133.374 34.4286 132.39 35.2344 131.134 35.7996C129.879 36.3438 128.414 36.6159 126.739 36.6159ZM153.265 36.3019V14.3246H157.974V36.3019H153.265ZM139.419 36.3019V14.3246H144.128V36.3019H139.419ZM141.303 27.4796L141.334 23.2097H155.682V27.4796H141.303ZM173.435 36.6159C171.823 36.6159 170.336 36.3333 168.977 35.7682C167.616 35.203 166.423 34.4181 165.397 33.4135C164.393 32.3879 163.618 31.1843 163.074 29.8029C162.53 28.4006 162.258 26.883 162.258 25.2504C162.258 23.5969 162.53 22.0899 163.074 20.7294C163.618 19.348 164.393 18.1444 165.397 17.1188C166.423 16.0932 167.616 15.2978 168.977 14.7327C170.336 14.1676 171.823 13.885 173.435 13.885C175.068 13.885 176.553 14.1676 177.893 14.7327C179.253 15.2978 180.436 16.0932 181.441 17.1188C182.466 18.1444 183.251 19.348 183.796 20.7294C184.339 22.1108 184.612 23.6178 184.612 25.2504C184.612 26.883 184.339 28.3901 183.796 29.7715C183.251 31.1529 182.466 32.3565 181.441 33.3821C180.436 34.4076 179.253 35.203 177.893 35.7682C176.553 36.3333 175.068 36.6159 173.435 36.6159ZM173.435 32.1576C174.355 32.1576 175.203 31.9901 175.978 31.6553C176.773 31.3204 177.454 30.839 178.019 30.211C178.584 29.5831 179.023 28.8505 179.337 28.0133C179.672 27.1761 179.84 26.2551 179.84 25.2504C179.84 24.2458 179.672 23.3248 179.337 22.4876C179.023 21.6504 178.584 20.9283 178.019 20.3212C177.454 19.6933 176.773 19.2119 175.978 18.877C175.203 18.5212 174.355 18.3433 173.435 18.3433C172.514 18.3433 171.666 18.5212 170.892 18.877C170.117 19.2119 169.437 19.6933 168.851 20.3212C168.264 20.9283 167.815 21.6504 167.501 22.4876C167.208 23.3248 167.061 24.2458 167.061 25.2504C167.061 26.2551 167.208 27.1761 167.501 28.0133C167.815 28.8505 168.264 29.5831 168.851 30.211C169.437 30.839 170.117 31.3204 170.892 31.6553C171.666 31.9901 172.514 32.1576 173.435 32.1576ZM188.874 36.3019V14.3246H198.199C199.496 14.3246 200.668 14.6385 201.715 15.2664C202.783 15.8735 203.619 16.7107 204.227 17.7781C204.855 18.8456 205.169 20.0492 205.169 21.3887C205.169 22.7492 204.855 23.9737 204.227 25.0621C203.619 26.1504 202.783 27.0191 201.715 27.668C200.668 28.2959 199.496 28.6098 198.199 28.6098H193.583V36.3019H188.874ZM193.521 24.3713H197.665C198.167 24.3713 198.617 24.2458 199.015 23.9946C199.412 23.7225 199.726 23.3667 199.957 22.9271C200.208 22.4876 200.334 21.9852 200.334 21.4201C200.334 20.855 200.208 20.3631 199.957 19.9445C199.726 19.5049 199.412 19.1701 199.015 18.9398C198.617 18.6886 198.167 18.563 197.665 18.563H193.521V24.3713Z" fill="white"/>
<path d="M96.8869 16.0659H79.7171C79.034 16.0659 78.3789 16.3373 77.8959 16.8202C77.413 17.3032 77.1416 17.9583 77.1416 18.6414V30.6603C77.1416 31.3433 77.413 31.9984 77.8959 32.4814C78.3789 32.9643 79.034 33.2357 79.7171 33.2357H96.8869C97.5699 33.2357 98.2252 32.9643 98.7079 32.4814C99.1906 31.9984 99.4624 31.3433 99.4624 30.6603V18.6414C99.4624 17.9583 99.1906 17.3032 98.7079 16.8202C98.2252 16.3373 97.5699 16.0659 96.8869 16.0659ZM97.7454 30.6603C97.7454 30.888 97.6549 31.1063 97.4939 31.2673C97.3329 31.4283 97.1146 31.5187 96.8869 31.5187H79.7171C79.4894 31.5187 79.2711 31.4283 79.11 31.2673C78.949 31.1063 78.8586 30.888 78.8586 30.6603V18.6414C78.8586 18.4137 78.949 18.1954 79.11 18.0344C79.2711 17.8734 79.4894 17.7829 79.7171 17.7829H96.8869C97.1146 17.7829 97.3329 17.8734 97.4939 18.0344C97.6549 18.1954 97.7454 18.4137 97.7454 18.6414V30.6603ZM92.5944 35.8112C92.5944 36.0389 92.504 36.2572 92.343 36.4182C92.182 36.5792 91.9637 36.6697 91.7359 36.6697H84.868C84.6403 36.6697 84.422 36.5792 84.261 36.4182C84.1 36.2572 84.0095 36.0389 84.0095 35.8112C84.0095 35.5835 84.1 35.3652 84.261 35.2042C84.422 35.0432 84.6403 34.9527 84.868 34.9527H91.7359C91.9637 34.9527 92.182 35.0432 92.343 35.2042C92.504 35.3652 92.5944 35.5835 92.5944 35.8112Z" fill="#010304"/>
</svg>
